<?xml version="1.0" encoding="utf-8"?>
<!-- Generator: Adobe Illustrator 22.1.0, SVG Export Plug-In . SVG Version: 6.00 Build 0)  -->
<svg version="1.1" xmlns="http://www.w3.org/2000/svg" xmlns:xlink="http://www.w3.org/1999/xlink" x="0px" y="0px"
	 viewBox="0 0 863 1280" style="enable-background:new 0 0 863 1280;" xml:space="preserve">
<g id="Capa_1">
	<g transform="translate(0.000000,1280.000000) scale(0.100000,-0.100000)">
		<path d="M3294,11499c-325-4-631-12-681-18c-265-32-473-138-598-303c-65-86-121-205-146-313c-20-83-22-124-26-545
			c-4-369-7-458-19-474c-21-31-21-643,1-672c21-28,21-380,0-408c-22-29-22-641,0-673c13-18,15-396,18-3109l2-3089l23-85
			c63-235,223-423,437-513c92-38,230-75,325-86c348-41,3080-41,3420,0c232,28,438,117,568,248c93,93,152,199,194,346l23,80l3,3141
			c2,2768,4,3143,17,3154c22,18,22,655,0,686c-12,18-15,158-18,970c-4,1024-1,980-57,1139c-96,278-352,461-706,505
			c-92,12-1346,30-1864,28C4031,11507,3619,11503,3294,11499z M6651,10440c19-11,19-67,19-4118c0-3182-3-4111-12-4120
			s-538-12-2319-12c-2084,0-2309,2-2323,16c-15,14-16,401-16,4112c0,2253,4,4102,8,4108s14,14,22,17
			C2059,10454,6630,10451,6651,10440z"/>
	</g>
</g>
<g id="Capa_2">
	
		<image style="overflow:visible;" width="351" height="624" xlink:href="ScreenShot_Untoke.jpg"  transform="matrix(1.3218 0 0 1.3218 200 235.0098)">
	</image>
</g>
</svg>
