<?xml version="1.0" encoding="utf-8"?>
<!-- Generator: Adobe Illustrator 22.1.0, SVG Export Plug-In . SVG Version: 6.00 Build 0)  -->
<svg version="1.1" id="Capa_1" xmlns="http://www.w3.org/2000/svg" xmlns:xlink="http://www.w3.org/1999/xlink" x="0px" y="0px"
	 viewBox="0 0 58 58" style="enable-background:new 0 0 58 58;" xml:space="preserve">
<style type="text/css">
	.st0{fill:#64B1CD;}
</style>
<g>
	<path class="st0" d="M28.8,0C12.9,0,0,12.9,0,28.9c0,11.4,6.6,21.3,16.3,26l0.1-27.2c0,0,0-3.6,2.8-7.2s9.2-3.3,9.2-3.3
		s5.6-0.3,9.2,3.6c1.9,2.1,2.5,4.5,2.7,5.6c0.1,0.3,0.1,0.6,0.1,0.9v28.1c10.2-4.5,17.3-14.6,17.3-26.4C57.6,12.9,44.7,0,28.8,0z"/>
	<path class="st0" d="M36.7,28.6c-0.1-0.9-0.3-3.3-1.6-5.1c-2.5-3.4-6.7-2.9-6.7-2.9s-4.7-0.3-6.7,2.9c-1.9,3.2-1.7,6.3-1.7,6.3
		l-0.1,23.8l0,2.7c2.8,0.9,5.8,1.4,8.9,1.4c2.8,0,5.4-0.4,7.9-1.1v-2.7V29.4C36.8,29.1,36.7,28.8,36.7,28.6z M34.6,34.6
		c0,0-0.5,0.8-1.2,1c-0.6,0.2-9.9,0.1-9.9,0.1s-1.2-0.2-1.3-1.1v-6.5c0,0-0.1-2.2,1.6-3.8c1.7-1.6,4.4-1.5,4.4-1.5s2.7-0.1,4.5,1.4
		c1.8,1.5,1.8,5,1.8,5L34.6,34.6z"/>
</g>
</svg>
