<?xml version="1.0" encoding="utf-8"?>
<!-- Generator: Adobe Illustrator 22.1.0, SVG Export Plug-In . SVG Version: 6.00 Build 0)  -->
<svg version="1.1" id="Capa_1" xmlns="http://www.w3.org/2000/svg" xmlns:xlink="http://www.w3.org/1999/xlink" x="0px" y="0px"
	 viewBox="0 0 200 58" style="enable-background:new 0 0 200 58;" xml:space="preserve">
<style type="text/css">
	.st0{fill:#F9F9F9;}
</style>
<g>
	<g>
		<path class="st0" d="M28.8,0C12.9,0,0,12.9,0,28.9c0,11.4,6.6,21.3,16.3,26l0.1-27.2c0,0,0-3.6,2.8-7.2s9.2-3.3,9.2-3.3
			s5.6-0.3,9.2,3.6c1.9,2.1,2.5,4.5,2.7,5.6c0.1,0.3,0.1,0.6,0.1,0.9v28.1c10.2-4.5,17.3-14.6,17.3-26.4C57.6,12.9,44.7,0,28.8,0z"
			/>
		<path class="st0" d="M36.7,28.6c-0.1-0.9-0.3-3.3-1.6-5.1c-2.5-3.4-6.7-2.9-6.7-2.9s-4.7-0.3-6.7,2.9c-1.9,3.2-1.7,6.3-1.7,6.3
			l-0.1,23.8l0,2.7c2.8,0.9,5.8,1.4,8.9,1.4c2.8,0,5.4-0.4,7.9-1.1v-2.7V29.4C36.8,29.1,36.7,28.8,36.7,28.6z M34.6,34.6
			c0,0-0.5,0.8-1.2,1c-0.6,0.2-9.9,0.1-9.9,0.1s-1.2-0.2-1.3-1.1v-6.5c0,0-0.1-2.2,1.6-3.8c1.7-1.6,4.4-1.5,4.4-1.5s2.7-0.1,4.5,1.4
			c1.8,1.5,1.8,5,1.8,5L34.6,34.6z"/>
	</g>
	<path class="st0" d="M76.8,48.2c-2.1,0-3.9-0.3-5.3-0.9c-1.5-0.6-2.7-1.4-3.7-2.5c-1-1.1-1.7-2.4-2.2-3.8c-0.5-1.5-0.7-3.1-0.7-4.8
		v-19h5.6v18.5c0,1.4,0.2,2.6,0.5,3.5c0.3,1,0.7,1.8,1.3,2.4c0.6,0.6,1.2,1.1,2,1.4c0.8,0.3,1.6,0.4,2.6,0.4c1,0,1.8-0.1,2.6-0.4
		c0.8-0.3,1.5-0.7,2-1.4c0.6-0.6,1-1.4,1.3-2.4c0.3-1,0.5-2.2,0.5-3.5V17.1h5.6v19c0,1.8-0.2,3.4-0.7,4.8c-0.5,1.5-1.2,2.7-2.2,3.8
		c-1,1.1-2.2,1.9-3.7,2.5C80.7,47.9,78.9,48.2,76.8,48.2z"/>
	<path class="st0" d="M93.7,25.3c1-0.3,2.4-0.6,4-0.8c1.6-0.3,3.4-0.4,5.4-0.4c1.9,0,3.4,0.3,4.7,0.8c1.3,0.5,2.3,1.2,3,2.1
		c0.7,0.9,1.3,2,1.6,3.3c0.3,1.3,0.5,2.7,0.5,4.3v12.9h-5.3V35.5c0-1.2-0.1-2.3-0.2-3.1c-0.2-0.9-0.4-1.6-0.8-2.1
		c-0.4-0.5-0.9-0.9-1.5-1.2c-0.6-0.2-1.4-0.4-2.3-0.4c-0.7,0-1.4,0-2.1,0.1C99.9,28.9,99.3,29,99,29v18.5h-5.3V25.3z"/>
	<path class="st0" d="M116.9,18.5l5.3-0.9v6.9l8.1,0V29h-8.2v9.3c0,1.8,0.3,3.2,0.9,3.9c0.6,0.8,1.6,1.2,3,1.2c1,0,1.8-0.1,2.6-0.3
		c0.7-0.2,1.3-0.4,1.8-0.6l0.9,4.2c-0.6,0.3-1.4,0.5-2.4,0.8c-1,0.3-2.2,0.4-3.5,0.4c-1.6,0-3-0.2-4.1-0.7c-1.1-0.4-2-1.1-2.6-1.9
		c-0.6-0.8-1.1-1.8-1.4-3c-0.3-1.2-0.4-2.5-0.4-4.1L116.9,18.5z"/>
	<path class="st0" d="M155,36c0,1.8-0.3,3.5-0.8,5c-0.5,1.5-1.3,2.8-2.2,3.8c-1,1.1-2.1,1.9-3.5,2.5c-1.4,0.6-2.9,0.9-4.5,0.9
		c-1.6,0-3.1-0.3-4.5-0.9c-1.3-0.6-2.5-1.4-3.5-2.5c-1-1.1-1.7-2.3-2.3-3.8c-0.5-1.5-0.8-3.1-0.8-5c0-1.8,0.3-3.5,0.8-4.9
		c0.5-1.5,1.3-2.7,2.3-3.8c1-1.1,2.1-1.9,3.5-2.4c1.3-0.6,2.8-0.9,4.4-0.9c1.6,0,3.1,0.3,4.5,0.9c1.4,0.6,2.5,1.4,3.5,2.4
		c1,1.1,1.7,2.3,2.3,3.8C154.7,32.6,155,34.2,155,36z M149.6,36c0-2.3-0.5-4.1-1.5-5.4c-1-1.3-2.3-2-4.1-2s-3.1,0.7-4.1,2
		c-1,1.3-1.5,3.1-1.5,5.4c0,2.3,0.5,4.1,1.5,5.5c1,1.3,2.3,2,4.1,2s3.1-0.7,4.1-2C149.1,40.2,149.6,38.3,149.6,36z"/>
	<path class="st0" d="M163.7,33.5c0.7-0.7,1.4-1.5,2.1-2.3c0.8-0.8,1.5-1.6,2.2-2.4c0.7-0.8,1.4-1.6,2.1-2.3c0.7-0.7,1.2-1.4,1.7-2
		h6.3c-1.5,1.6-3,3.3-4.6,5.1c-1.6,1.8-3.2,3.5-4.9,5.1c0.9,0.7,1.8,1.6,2.8,2.7c1,1,1.9,2.1,2.8,3.3c0.9,1.2,1.7,2.3,2.5,3.5
		c0.8,1.2,1.4,2.3,2,3.2h-6.1c-0.5-0.9-1.1-1.9-1.8-2.9c-0.7-1-1.4-2-2.2-2.9c-0.8-0.9-1.6-1.8-2.4-2.7c-0.8-0.8-1.6-1.5-2.4-2.1
		v10.5h-5.3V17.9l5.3-0.9V33.5z"/>
	<path class="st0" d="M179.3,36.2c0-2,0.3-3.8,0.9-5.3c0.6-1.5,1.4-2.8,2.4-3.8c1-1,2.1-1.8,3.4-2.3c1.3-0.5,2.6-0.8,3.9-0.8
		c3.2,0,5.6,1,7.4,2.9c1.8,2,2.7,4.9,2.7,8.8c0,0.3,0,0.6,0,1c0,0.4,0,0.7-0.1,1h-15.1c0.1,1.8,0.8,3.3,2,4.3c1.2,1,2.8,1.5,5,1.5
		c1.3,0,2.5-0.1,3.5-0.4c1.1-0.2,1.9-0.5,2.5-0.7l0.7,4.3c-0.3,0.1-0.7,0.3-1.2,0.5c-0.5,0.2-1.1,0.3-1.8,0.4
		c-0.7,0.1-1.4,0.2-2.1,0.3c-0.8,0.1-1.5,0.1-2.3,0.1c-2,0-3.8-0.3-5.3-0.9c-1.5-0.6-2.7-1.4-3.7-2.5c-1-1.1-1.7-2.3-2.1-3.8
		C179.5,39.5,179.3,37.9,179.3,36.2z M194.7,33.8c0-0.7-0.1-1.4-0.3-2.1c-0.2-0.7-0.5-1.2-0.9-1.7c-0.4-0.5-0.9-0.9-1.4-1.1
		c-0.6-0.3-1.2-0.4-2-0.4c-0.8,0-1.5,0.2-2.1,0.5c-0.6,0.3-1.1,0.7-1.6,1.2c-0.4,0.5-0.8,1.1-1,1.7c-0.2,0.6-0.4,1.3-0.5,2H194.7z"
		/>
</g>
</svg>
